<svg xmlns="http://www.w3.org/2000/svg" viewBox="0 0 64 64" role="img" aria-label="간다GO">
  <defs>
    <linearGradient id="g" x1="0" y1="0" x2="1" y2="1">
      <stop offset="0" stop-color="#ff9a4d"/><stop offset="1" stop-color="#f26a1b"/>
    </linearGradient>
  </defs>
  <rect width="64" height="64" rx="16" fill="#0a0f18"/>
  <rect x="1.25" y="1.25" width="61.5" height="61.5" rx="14.75" fill="none" stroke="#2b3547" stroke-width="1.5"/>
  <!-- bold G letterform as path (font-independent) -->
  <path fill="url(#g)" d="M33.6 13.2c5.2 0 9.6 2.1 12.3 5.6l-5.3 4.6c-1.7-2.1-4-3.2-6.9-3.2-5.2 0-9 3.9-9 9.8s3.8 9.9 9.2 9.9c3.9 0 6.8-1.9 7.9-5.1h-8.3v-6.2H50v4.3c0 8.9-6.2 15.1-15.6 15.1-9.9 0-17-7.2-17-17s7.2-17.4 16.2-17.4z"/>
</svg>
